<?xml version="1.0" encoding="utf-8"?>
<!-- Generator: Adobe Illustrator 25.2.1, SVG Export Plug-In . SVG Version: 6.00 Build 0)  -->
<svg version="1.1" id="Layer_1" xmlns="http://www.w3.org/2000/svg" xmlns:xlink="http://www.w3.org/1999/xlink" x="0px" y="0px"
	 viewBox="0 0 4000 4000" style="enable-background:new 0 0 4000 4000;" xml:space="preserve">
<style type="text/css">
	.st0{fill:#FFFFFF;}
	.st1{fill:#B3B3B3;}
</style>
<rect class="st0" width="4000" height="4000"/>
<g>
	<path class="st1" d="M2193.1,784.3c0-134.66-109.16-243.82-243.82-243.82c-134.65,0-243.82,109.16-243.82,243.82
		c0,134.65,109.16,243.82,243.82,243.82C2083.94,1028.11,2193.1,918.95,2193.1,784.3 M2015.21,1150.15l273.08,157.67h0.52
		l273.08,157.66l66.45,38.39v76.36v315.33h-265.82V1656.6l-206.62-119.31l0.13-0.22l-206.76-119.37l-206.75,119.37l0.13,0.22
		l-206.62,119.31v238.95h-265.82v-315.33v-76.36l66.45-38.39l273.08-157.66h0.53l273.08-157.67l65.93-38.05L2015.21,1150.15z"/>
	<path class="st1" d="M2953.89,1301.4c95.21-95.21,95.21-249.59,0-344.81c-95.22-95.21-249.61-95.21-344.82,0
		c-95.22,95.22-95.22,249.6,0,344.81C2704.28,1396.63,2858.66,1396.63,2953.89,1301.4 M2569.39,1434.34l81.61,304.57l0.37,0.36
		l81.61,304.6l19.85,74.12l-54,53.99l-222.96,222.97l-187.96-187.96l168.96-168.98l-61.75-230.45l0.25-0.08l-61.78-230.6
		l-230.6-61.79l-0.08,0.25l-230.46-61.75l-168.97,168.96l-187.96-187.97l222.97-222.96l53.99-54l74.13,19.85l304.6,81.61l0.36,0.37
		l304.57,81.61l73.54,19.71L2569.39,1434.34z"/>
	<path class="st1" d="M3126.18,2205.02c134.65,0,243.82-109.16,243.82-243.82s-109.16-243.82-243.82-243.82
		c-134.66,0-243.82,109.16-243.82,243.82S2991.53,2205.02,3126.18,2205.02 M2760.32,2027.13l-157.66,273.08v0.52l-157.66,273.08
		l-38.39,66.44h-76.35h-315.33v-265.82h238.95l119.31-206.63l0.22,0.14l119.37-206.76l-119.37-206.76l-0.22,0.14l-119.31-206.63
		h-238.95v-265.82h315.33h76.35l38.39,66.44l157.66,273.08v0.52l157.66,273.08l38.05,65.93L2760.32,2027.13z"/>
	<path class="st1" d="M2609.07,2965.8c95.21,95.21,249.59,95.21,344.82,0c95.21-95.22,95.21-249.6,0-344.81
		c-95.22-95.22-249.61-95.22-344.82,0C2513.85,2716.2,2513.85,2870.57,2609.07,2965.8 M2476.14,2581.3l-304.57,81.61l-0.36,0.38
		l-304.6,81.6l-74.13,19.86l-53.99-54l-222.97-222.96l187.96-187.96l168.97,168.96l230.46-61.75l0.08,0.26l230.6-61.8l61.78-230.6
		l-0.25-0.08l61.75-230.45l-168.96-168.97l187.96-187.96l222.96,222.97l54,53.99l-19.85,74.13l-81.61,304.59l-0.37,0.37
		l-81.61,304.57l-19.71,73.54L2476.14,2581.3z"/>
	<path class="st1" d="M1705.46,3138.09c0,134.66,109.16,243.82,243.82,243.82c134.66,0,243.82-109.16,243.82-243.82
		c0-134.65-109.16-243.82-243.82-243.82C1814.63,2894.28,1705.46,3003.44,1705.46,3138.09 M1883.34,2772.24l-273.08-157.67h-0.53
		l-273.08-157.66l-66.45-38.39v-76.35v-315.33h265.82v238.95l206.62,119.3l-0.13,0.22l206.75,119.37l206.76-119.37l-0.13-0.22
		l206.62-119.3v-238.95h265.82v315.33v76.35l-66.45,38.39l-273.08,157.66h-0.52l-273.08,157.67l-65.93,38.05L1883.34,2772.24z"/>
	<path class="st1" d="M944.68,2620.98c-95.21,95.21-95.21,249.59,0,344.81c95.22,95.21,249.61,95.21,344.82,0
		c95.22-95.22,95.22-249.6,0-344.81C1194.28,2525.76,1039.9,2525.76,944.68,2620.98 M1329.17,2488.05l-81.61-304.57l-0.36-0.37
		l-81.61-304.59l-19.85-74.13l54-53.99l222.96-222.97l187.96,187.96l-168.96,168.97l61.75,230.45l-0.25,0.08l61.78,230.6l230.6,61.8
		l0.08-0.26l230.46,61.75l168.97-168.96l187.96,187.96l-222.97,222.96l-53.99,54l-74.13-19.86l-304.6-81.6l-0.36-0.38l-304.57-81.61
		l-73.54-19.71L1329.17,2488.05z"/>
	<path class="st1" d="M772.38,1717.38c-134.66,0-243.82,109.16-243.82,243.82s109.16,243.82,243.82,243.82
		c134.66,0,243.82-109.16,243.82-243.82S907.04,1717.38,772.38,1717.38 M1138.24,1895.26l157.66-273.08v-0.52l157.66-273.08
		l38.39-66.44h76.35h315.33v265.82h-238.95l-119.31,206.63l-0.22-0.14l-119.37,206.76l119.37,206.76l0.22-0.14l119.31,206.63h238.95
		v265.82h-315.33h-76.35l-38.39-66.44l-157.66-273.08v-0.52l-157.66-273.08l-38.05-65.93L1138.24,1895.26z"/>
	<path class="st1" d="M1289.49,956.59c-95.21-95.21-249.59-95.21-344.82,0c-95.21,95.22-95.21,249.6,0,344.81
		c95.22,95.22,249.61,95.22,344.82,0C1384.71,1206.19,1384.71,1051.82,1289.49,956.59 M1422.42,1341.09l304.57-81.61l0.36-0.37
		l304.6-81.61l74.13-19.85l53.99,54l222.97,222.96l-187.96,187.97l-168.97-168.96l-230.46,61.75l-0.08-0.25l-230.6,61.79
		l-61.78,230.6l0.25,0.08l-61.75,230.45l168.96,168.98l-187.96,187.96l-222.96-222.97l-54-53.99l19.85-74.12l81.61-304.6l0.36-0.36
		l81.61-304.57l19.71-73.54L1422.42,1341.09z"/>
</g>
</svg>
